<mxfile host="65bd71144e" scale="3" border="0">
    <diagram id="R2lEEEUBdFMjLlhIrx00" name="Page-1">
        <mxGraphModel dx="590" dy="563" grid="1" gridSize="10" guides="1" tooltips="1" connect="1" arrows="1" fold="1" page="1" pageScale="1" pageWidth="827" pageHeight="1169" background="#FFFFFF" math="0" shadow="0" extFonts="Permanent Marker^https://fonts.googleapis.com/css?family=Permanent+Marker">
            <root>
                <mxCell id="0"/>
                <mxCell id="1" parent="0"/>
                <mxCell id="RJFD0Sm-HPqhG27CNGZm-23" value="Tecnico" style="shape=umlActor;verticalLabelPosition=bottom;verticalAlign=top;html=1;outlineConnect=0;" parent="1" vertex="1">
                    <mxGeometry x="190" y="340" width="30" height="60" as="geometry"/>
                </mxCell>
                <mxCell id="RJFD0Sm-HPqhG27CNGZm-24" value="" style="edgeStyle=none;rounded=0;jumpStyle=none;orthogonalLoop=1;jettySize=auto;html=1;strokeWidth=1;endArrow=none;endFill=0;entryX=0.5;entryY=0.5;entryDx=0;entryDy=0;entryPerimeter=0;" parent="1" source="RJFD0Sm-HPqhG27CNGZm-25" target="RJFD0Sm-HPqhG27CNGZm-23" edge="1">
                    <mxGeometry relative="1" as="geometry"/>
                </mxCell>
                <mxCell id="5" style="edgeStyle=none;html=1;exitX=1;exitY=0.5;exitDx=0;exitDy=0;entryX=0.5;entryY=0.5;entryDx=0;entryDy=0;entryPerimeter=0;endArrow=none;endFill=0;" parent="1" source="RJFD0Sm-HPqhG27CNGZm-25" target="RJFD0Sm-HPqhG27CNGZm-31" edge="1">
                    <mxGeometry relative="1" as="geometry"/>
                </mxCell>
                <mxCell id="RJFD0Sm-HPqhG27CNGZm-25" value="Visualizzazione&lt;br&gt;&amp;nbsp;interventi" style="ellipse;whiteSpace=wrap;html=1;" parent="1" vertex="1">
                    <mxGeometry x="310" y="340" width="110" height="60" as="geometry"/>
                </mxCell>
                <mxCell id="RJFD0Sm-HPqhG27CNGZm-26" style="rounded=0;orthogonalLoop=1;jettySize=auto;html=1;exitX=0.5;exitY=0;exitDx=0;exitDy=0;endArrow=open;endFill=0;dashed=1;strokeWidth=1;jumpStyle=none;entryX=0.5;entryY=1;entryDx=0;entryDy=0;" parent="1" source="RJFD0Sm-HPqhG27CNGZm-29" target="RJFD0Sm-HPqhG27CNGZm-25" edge="1">
                    <mxGeometry relative="1" as="geometry">
                        <mxPoint x="380" y="430" as="targetPoint"/>
                    </mxGeometry>
                </mxCell>
                <mxCell id="RJFD0Sm-HPqhG27CNGZm-27" value="&amp;lt;extend&amp;gt;" style="edgeLabel;html=1;align=center;verticalAlign=middle;resizable=0;points=[];" parent="RJFD0Sm-HPqhG27CNGZm-26" vertex="1" connectable="0">
                    <mxGeometry x="0.1093" y="1" relative="1" as="geometry">
                        <mxPoint as="offset"/>
                    </mxGeometry>
                </mxCell>
                <mxCell id="RJFD0Sm-HPqhG27CNGZm-28" style="edgeStyle=none;rounded=0;jumpStyle=none;orthogonalLoop=1;jettySize=auto;html=1;exitX=1;exitY=0;exitDx=0;exitDy=0;entryX=0.5;entryY=0.5;entryDx=0;entryDy=0;entryPerimeter=0;strokeWidth=1;endArrow=none;endFill=0;" parent="1" source="RJFD0Sm-HPqhG27CNGZm-29" target="RJFD0Sm-HPqhG27CNGZm-31" edge="1">
                    <mxGeometry relative="1" as="geometry"/>
                </mxCell>
                <mxCell id="RJFD0Sm-HPqhG27CNGZm-29" value="Conclusione intervento" style="ellipse;whiteSpace=wrap;html=1;" parent="1" vertex="1">
                    <mxGeometry x="310" y="480" width="110" height="60" as="geometry"/>
                </mxCell>
                <mxCell id="RJFD0Sm-HPqhG27CNGZm-31" value="Ardeeno DataLayer" style="shape=umlActor;verticalLabelPosition=bottom;verticalAlign=top;html=1;outlineConnect=0;" parent="1" vertex="1">
                    <mxGeometry x="590" y="340" width="30" height="60" as="geometry"/>
                </mxCell>
                <mxCell id="RJFD0Sm-HPqhG27CNGZm-40" style="edgeStyle=none;rounded=0;jumpStyle=none;orthogonalLoop=1;jettySize=auto;html=1;exitX=1;exitY=1;exitDx=0;exitDy=0;strokeWidth=1;endArrow=none;endFill=0;dashed=1;startArrow=open;startFill=0;" parent="1" source="RJFD0Sm-HPqhG27CNGZm-25" edge="1">
                    <mxGeometry relative="1" as="geometry">
                        <mxPoint x="640" y="520" as="sourcePoint"/>
                        <mxPoint x="580" y="490" as="targetPoint"/>
                    </mxGeometry>
                </mxCell>
                <mxCell id="RJFD0Sm-HPqhG27CNGZm-41" value="&lt;div&gt;&amp;lt;extend&amp;gt;&lt;/div&gt;" style="edgeLabel;html=1;align=center;verticalAlign=middle;resizable=0;points=[];" parent="RJFD0Sm-HPqhG27CNGZm-40" vertex="1" connectable="0">
                    <mxGeometry x="0.1821" y="-1" relative="1" as="geometry">
                        <mxPoint x="-47" y="-30" as="offset"/>
                    </mxGeometry>
                </mxCell>
                <mxCell id="RJFD0Sm-HPqhG27CNGZm-42" style="edgeStyle=none;rounded=0;jumpStyle=none;orthogonalLoop=1;jettySize=auto;html=1;exitX=0.5;exitY=0;exitDx=0;exitDy=0;strokeWidth=1;startArrow=none;startFill=0;endArrow=none;endFill=0;" parent="1" source="RJFD0Sm-HPqhG27CNGZm-39" edge="1">
                    <mxGeometry relative="1" as="geometry">
                        <mxPoint x="605" y="430" as="targetPoint"/>
                    </mxGeometry>
                </mxCell>
                <mxCell id="RJFD0Sm-HPqhG27CNGZm-39" value="Aggiunta sensore" style="ellipse;whiteSpace=wrap;html=1;" parent="1" vertex="1">
                    <mxGeometry x="550" y="480" width="110" height="60" as="geometry"/>
                </mxCell>
                <mxCell id="10" value="Rimozione sensore" style="ellipse;whiteSpace=wrap;html=1;" parent="1" vertex="1">
                    <mxGeometry x="430" y="480" width="110" height="60" as="geometry"/>
                </mxCell>
                <mxCell id="11" style="edgeStyle=none;rounded=0;jumpStyle=none;orthogonalLoop=1;jettySize=auto;html=1;strokeWidth=1;endArrow=none;endFill=0;dashed=1;startArrow=open;startFill=0;exitX=0.694;exitY=1.001;exitDx=0;exitDy=0;exitPerimeter=0;entryX=0.5;entryY=0;entryDx=0;entryDy=0;" parent="1" source="RJFD0Sm-HPqhG27CNGZm-25" target="10" edge="1">
                    <mxGeometry relative="1" as="geometry">
                        <mxPoint x="414.20833350438215" y="401.03861797796117" as="sourcePoint"/>
                        <mxPoint x="590" y="500" as="targetPoint"/>
                    </mxGeometry>
                </mxCell>
                <mxCell id="12" value="&lt;div&gt;&amp;lt;extend&amp;gt;&lt;/div&gt;" style="edgeLabel;html=1;align=center;verticalAlign=middle;resizable=0;points=[];" parent="11" vertex="1" connectable="0">
                    <mxGeometry x="0.1821" y="-1" relative="1" as="geometry">
                        <mxPoint x="-14" y="-8" as="offset"/>
                    </mxGeometry>
                </mxCell>
                <mxCell id="13" style="edgeStyle=none;rounded=0;jumpStyle=none;orthogonalLoop=1;jettySize=auto;html=1;exitX=0.5;exitY=0;exitDx=0;exitDy=0;entryX=0.5;entryY=0.5;entryDx=0;entryDy=0;entryPerimeter=0;strokeWidth=1;endArrow=none;endFill=0;" parent="1" source="10" target="RJFD0Sm-HPqhG27CNGZm-31" edge="1">
                    <mxGeometry relative="1" as="geometry">
                        <mxPoint x="414.20833350438215" y="498.96138202203883" as="sourcePoint"/>
                        <mxPoint x="615" y="380" as="targetPoint"/>
                    </mxGeometry>
                </mxCell>
                <mxCell id="5gecG4SA-mFeOVy3M1LV-17" style="rounded=0;orthogonalLoop=1;jettySize=auto;html=1;exitX=0.5;exitY=0.5;exitDx=0;exitDy=0;exitPerimeter=0;entryX=1;entryY=0;entryDx=0;entryDy=0;endArrow=none;endFill=0;" parent="1" source="5gecG4SA-mFeOVy3M1LV-15" target="RJFD0Sm-HPqhG27CNGZm-39" edge="1">
                    <mxGeometry relative="1" as="geometry"/>
                </mxCell>
                <mxCell id="5gecG4SA-mFeOVy3M1LV-15" value="GPS" style="shape=umlActor;verticalLabelPosition=bottom;verticalAlign=top;html=1;outlineConnect=0;" parent="1" vertex="1">
                    <mxGeometry x="670" y="420" width="30" height="60" as="geometry"/>
                </mxCell>
                <mxCell id="14" value="Dashboard" style="ellipse;whiteSpace=wrap;html=1;" vertex="1" parent="1">
                    <mxGeometry x="430" y="300" width="110" height="60" as="geometry"/>
                </mxCell>
                <mxCell id="18" style="edgeStyle=none;rounded=0;jumpStyle=none;orthogonalLoop=1;jettySize=auto;html=1;exitX=1;exitY=0;exitDx=0;exitDy=0;strokeWidth=1;endArrow=none;endFill=0;dashed=1;startArrow=open;startFill=0;entryX=0;entryY=0.5;entryDx=0;entryDy=0;" edge="1" parent="1" source="RJFD0Sm-HPqhG27CNGZm-25" target="14">
                    <mxGeometry relative="1" as="geometry">
                        <mxPoint x="413.8908729652601" y="401.21320343559637" as="sourcePoint"/>
                        <mxPoint x="590" y="500" as="targetPoint"/>
                    </mxGeometry>
                </mxCell>
                <mxCell id="19" value="&lt;div&gt;&amp;lt;extend&amp;gt;&lt;/div&gt;" style="edgeLabel;html=1;align=center;verticalAlign=middle;resizable=0;points=[];" vertex="1" connectable="0" parent="18">
                    <mxGeometry x="0.1821" y="-1" relative="1" as="geometry">
                        <mxPoint x="-20" y="-8" as="offset"/>
                    </mxGeometry>
                </mxCell>
            </root>
        </mxGraphModel>
    </diagram>
</mxfile>